<svg height="512" viewBox="0 0 60 60" width="512" xmlns="http://www.w3.org/2000/svg"><g id="Page-1" fill="none" fill-rule="evenodd"><g id="018---Poem" fill="rgb(0,0,0)" fill-rule="nonzero"><path id="Shape" d="m59.533 4.684c-.3090562-.19475349-.6997154-.20548799-1.019-.028-2.6264337 1.37898603-5.5740998 2.02984119-8.537 1.885-.2416121-3.67682277-3.2922497-6.53682284-6.977-6.541h-36c-3.86416566.00440864-6.99559136 3.13583434-7 7v46c.00440864 3.8641657 3.13583434 6.9955914 7 7h36c3.6505268-.0281152 6.6665122-2.8569603 6.9280964-6.4982115.2615841-3.6412511-2.3190747-6.872154-5.9280964-7.4217885v-22.78c2.086-1.791 4.746-2.638 7.512-3.519l.714-.228c6.959-2.234 7.742-13.483 7.774-13.961.0222252-.3653213-.1569001-.71359917-.467-.908zm-16.533-2.684c2.5511213.00800817 4.6852005 1.93933476 4.947 4.477-.745-.039-1.5-.09-2.254-.143-2.8022926-.29594944-5.629174-.2717938-8.426.072-.025 0-.047.006-.071.011-3.5295715.5529539-6.7786881 2.2532488-9.245 4.838-.247.249-.482.5-.711.745h-15.34c1.3460529-1.3153928 2.104889-3.11794883 2.104889-5s-.7588361-3.68460721-2.104889-5zm-41 51v-46c0-2.76142375 2.23857625-5 5-5s5 2.23857625 5 5-2.23857625 5-5 5c-.55228475 0-1 .4477153-1 1s.44771525 1 1 1h18.592c-5.158 7.01-3.378 13.369-2.306 15.88-1.8309362 3.1540195-3.1769969 6.5655232-3.993 10.12h-10.293c-.55228475 0-1 .4477153-1 1s.44771525 1 1 1h11.117c.2125025.0000953.4195105-.0675063.591-.193l4.564-3.341c.2555786-.1867475.4076502-.4834727.41-.8.0574764-1.5763657.2245464-3.1468234.5-4.7 1.2879527.6077168 2.6969552.9154339 4.121.9.7546733-.0009868 1.5073777-.0770277 2.247-.227 2.9449398-.6245227 5.5659119-2.2900578 7.382-4.691.019-.019.029-.044.047-.064.5995981-.771042 1.1271453-1.5955018 1.576-2.463.142-.277.293-.539.45-.791v20.37h-35.005c-.55228475 0-1 .4477153-1 1s.44771525 1 1 1c2.76142375 0 5 2.2385763 5 5s-2.23857625 5-5 5-5-2.2385763-5-5zm22.265-20.741c-.2968847 1.6125927-.4856389 3.2432279-.565 4.881l-1.972 1.443c.6424979-2.1839293 1.4920182-4.3015352 2.537-6.324zm23.735 20.741c-.0033061 2.7600532-2.2399468 4.9966939-5 5h-31.1c1.3460529-1.3153928 2.104889-3.1179488 2.104889-5s-.7588361-3.6846072-2.104889-5h31.1c2.7600532.0033061 4.9966939 2.2399468 5 5zm3.613-35.352-.708.227c-2.0395344.5794344-4.0160299 1.3613226-5.9 2.334-.8492275-.032454-1.6613969-.3562625-2.3-.917-.252944-.2525868-.6214274-.3510425-.966646-.25828-.3452186.0927626-.6147254.3626507-.707.708-.0922745.3453494.006702.7136932.259646.96628.4370954.4267654.9516368.7661726 1.516 1-1.2603966 1.0494148-2.2940388 2.3443596-3.038 3.806-.3108633.6030219-.6647799 1.182857-1.059 1.735-1.8171961.0070338-3.6140237-.3827055-5.265-1.142-.4942948-.2468713-1.0951287-.0462948-1.342.448-.2468712.4942949-.0462948 1.0951287.448 1.342 1.4127017.6764228 2.9336937 1.0982247 4.493 1.246-1.3725053 1.276528-3.0662431 2.155889-4.9 2.544-1.8809403.4356169-3.8563663.1651568-5.551-.76.3523506-1.5420129.8457616-3.0483557 1.474-4.5 7.717-9.527 13.321-11.738 22.933-13.071.354405-.0485224.6559004-.2826541.7906681-.6140073.1347676-.3313533.0822798-.7094567-.1376488-.9915714-.2199285-.2821148-.5737984-.4252695-.9280193-.3754213-9.973 1.384-16.151 3.813-24.274 13.877-.01.011-.018.022-.027.034-.653.81-1.24 1.623-1.785 2.432-1.1561597-4.0990187-.3621479-8.5020405 2.153-11.939.0447228.494255.1256061.9845681.242 1.467.135862.5357162.6802838.859862 1.216.724s.859862-.6802838.724-1.216c-.272532-1.1537036-.3210769-2.3489957-.143-3.521.176-.189.354-.378.542-.568 1.7030371-1.7743231 3.828827-3.08702764 6.178-3.815-.3650695 1.01006981-.5515194 2.0759811-.551 3.15 0 .5522847.4477153 1 1 1s1-.4477153 1-1c-.0141085-1.2981981.3365287-2.57428185 1.012-3.683 1.6669297-.19928175 3.3485593-.24614244 5.024-.14-.3664017.42029075-.6806792.88331282-.936 1.379-.2452001.4948481-.0428363 1.0947761.452 1.34.139086.0693896.292569.1050195.448.104.3814967.0015143.7306171-.2141646.9-.556.4436872-.83890898 1.0822372-1.55907806 1.862-2.1 3.957.272 8.026.521 12.029-1.122-.484 3.035-1.96 9.078-6.178 10.426z"/><path id="Shape" d="m9 37h8c.5522847 0 1-.4477153 1-1s-.4477153-1-1-1h-8c-.55228475 0-1 .4477153-1 1s.44771525 1 1 1z"/><path id="Shape" d="m9 32h10c.5522847 0 1-.4477153 1-1s-.4477153-1-1-1h-10c-.55228475 0-1 .4477153-1 1s.44771525 1 1 1z"/><path id="Shape" d="m9 27h10c.5522847 0 1-.4477153 1-1s-.4477153-1-1-1h-10c-.55228475 0-1 .4477153-1 1s.44771525 1 1 1z"/><path id="Shape" d="m9 22h10c.5522847 0 1-.4477153 1-1s-.4477153-1-1-1h-10c-.55228475 0-1 .4477153-1 1s.44771525 1 1 1z"/></g></g></svg>
