<svg width="20" height="20" viewBox="0 0 20 20" fill="none" xmlns="http://www.w3.org/2000/svg">
<path d="M12.4999 10.5085H12.9999V10.0085V8.8418H13.6666V10.8418C13.6666 11.0265 13.5179 11.1751 13.3333 11.1751H6.66659C6.48189 11.1751 6.33325 11.0265 6.33325 10.8418V8.8418H6.99992V10.0085V10.5085H7.49992H12.4999Z" stroke="#596C7E"/>
<path d="M2.55273 5.23908L2.54161 5.23114L4.4911 2.63902L4.4916 2.63835C4.70829 2.34925 5.058 2.17432 5.42317 2.17432H14.5898C14.9561 2.17432 15.3067 2.35057 15.5248 2.64317L15.5252 2.64366L17.4716 5.24783L17.462 5.25521L17.7551 5.64989C17.815 5.73066 17.8332 5.79179 17.8332 5.84182V15.0085C17.8332 15.6515 17.3095 16.1751 16.6665 16.1751H3.33317C2.69015 16.1751 2.1665 15.6515 2.1665 15.0085V5.84182C2.1665 5.79151 2.18505 5.72931 2.24567 5.64848L2.55273 5.23908ZM5.42317 2.84182H5.17357L5.02355 3.04131L3.77022 4.70797L3.16824 5.50848H4.16984H15.8357H16.8337L16.2362 4.70912L14.9903 3.04246L14.8403 2.84182H14.5898H5.42317ZM2.83317 15.0085V15.5085H3.33317H16.6682H17.1683L17.1682 15.0084L17.1665 6.67505L17.1664 6.17515H16.6665H3.33317H2.83317V6.67515V15.0085Z" stroke="#596C7E"/>
</svg>
