<svg class="icon" style="width: 1.6em; height: 1.6em;vertical-align: middle;fill: #596C7E;overflow: hidden;" viewBox="0 0 1024 1024" version="1.1" xmlns="http://www.w3.org/2000/svg"><path d="M367.494327 499.897358c0 28.535917-23.164582 51.606355-51.744501 51.606355-28.534893 0-51.699476-23.070438-51.699476-51.606355 0-28.534893 23.164582-51.699476 51.699476-51.699476C344.329744 448.197882 367.494327 471.363488 367.494327 499.897358L367.494327 499.897358zM367.494327 499.897358M959.966103 471.269343c0-215.271902-201.053062-390.428154-448.248024-390.428154-247.200078 0-448.25314 175.157275-448.25314 390.428154 0 127.884622 72.03871 247.666706 192.861496 320.646857l0 123.081223c0 8.764618 4.802376 16.763802 12.477172 20.813025 3.53143 1.977028 7.249101 2.918469 11.254322 2.918469 4.611018 0 9.133008-1.316995 13.08911-3.950985l56.783261-37.480636c1.085728-0.661056 2.121314-1.508353 2.732228-2.077312l64.222697-42.75271c32.021298 6.027274 63.944358 9.138124 94.925976 9.138124C758.913041 861.514325 959.966103 686.446078 959.966103 471.269343L959.966103 471.269343zM291.731806 757.641583C178.44874 693.794439 110.879831 586.721819 110.879831 471.175199c0-189.092659 179.816388-342.969259 400.833131-342.969259 221.022882 0 400.838248 153.875576 400.838248 342.969259 0 189.094706-179.86653 342.970282-400.833131 342.970282-30.887474 0-62.904679-3.393283-95.114265-10.076496-6.120394-1.410116-12.620435-0.093121-17.98563 3.487428l-75.149561 50.096978c-1.036609 0.561795-2.539846 1.883907-2.539846 1.883907l-17.137309 11.298324 0-92.568279C303.790446 769.700223 299.12417 761.878071 291.731806 757.641583L291.731806 757.641583zM291.731806 757.641583M572.078819 485.393016c0 28.535917-23.164582 51.797713-51.79362 51.797713-28.5308 0-51.699476-23.261797-51.699476-51.797713 0-28.5308 23.168676-51.606355 51.699476-51.606355C548.913213 433.787684 572.078819 456.863239 572.078819 485.393016L572.078819 485.393016zM572.078819 485.393016M774.264681 485.393016c0 28.535917-23.168676 51.797713-51.699476 51.797713-28.535917 0-51.704592-23.261797-51.704592-51.797713 0-28.5308 23.168676-51.606355 51.704592-51.606355C751.096005 433.787684 774.264681 456.863239 774.264681 485.393016L774.264681 485.393016zM774.264681 485.393016" /></svg>
